
<svg width="512" height="512" viewBox="0 0 512 512" fill="none" xmlns="http://www.w3.org/2000/svg">
  <rect width="512" height="512" fill="#0052cc" opacity="0.1"/>
  <path d="M368 224C368 294.692 310.692 352 240 352C169.308 352 112 294.692 112 224C112 153.308 169.308 96 240 96C310.692 96 368 153.308 368 224Z" fill="#0052cc" opacity="0.2"/>
  <path d="M304 224C304 259.346 275.346 288 240 288C204.654 288 176 259.346 176 224C176 188.654 204.654 160 240 160C275.346 160 304 188.654 304 224Z" fill="#0052cc" opacity="0.3"/>
  <path d="M416 400L368 352L336 384L288 336L192 432L416 400Z" fill="#0052cc" opacity="0.5"/>
</svg>
