
<svg width="512" height="512" viewBox="0 0 512 512" fill="none" xmlns="http://www.w3.org/2000/svg">
  <rect width="512" height="512" fill="#E2E8F0"/>
  <path d="M256 128C205.306 128 164 169.306 164 220C164 270.694 205.306 312 256 312C306.694 312 348 270.694 348 220C348 169.306 306.694 128 256 128ZM256 264C232.944 264 212 243.056 212 220C212 196.944 232.944 176 256 176C279.056 176 300 196.944 300 220C300 243.056 279.056 264 256 264Z" fill="#94A3B8"/>
  <path d="M256 352C165.178 352 89.6 289.072 68 204.8L180.8 256L256 179.2L331.2 256L444 204.8C422.4 289.072 346.822 352 256 352Z" fill="#94A3B8"/>
</svg>
